<svg width="119" height="114" viewBox="0 0 119 114" fill="none" xmlns="http://www.w3.org/2000/svg">
<path d="M49.8536 97.872H49.7345L52.9773 87.8686L49.8536 97.872Z" stroke="#C35F58" stroke-width="2.4"/>
<path d="M59.6192 98.328H59.7464L56.2816 87.268L59.6192 98.328Z" stroke="#C35F58" stroke-width="2.4"/>
<path d="M47.9418 104.124L47.9787 104.244H47.16H44.6251L44.5344 104.124H47.9418ZM49.0704 107.792L49.7953 110.148H49.736L49.0704 107.792Z" stroke="#C35F58" stroke-width="2.4"/>
<path d="M61.4743 104.136L61.4373 104.256H62.256H64.7909L64.8816 104.136H61.4743ZM60.3456 107.804L59.6207 110.16H59.68L60.3456 107.804Z" stroke="#C35F58" stroke-width="2.4"/>
<path d="M47 112.423L41.5372 103.099L44.2527 100.26H65.3978L67.7755 103.345L62.4544 112.589L47 112.423Z" stroke="#C35F58" stroke-width="2.4"/>
<path d="M44.8525 87.6463L42.7273 93.2614L32.5845 75.924H35.8065L44.8525 87.6463Z" stroke="#C35F58" stroke-width="2.4"/>
<path d="M64.6592 87.7303L66.7845 93.3454L76.9272 76.008H73.7053L64.6592 87.7303Z" stroke="#C35F58" stroke-width="2.4"/>
<path d="M18.8059 65.3833L18.7402 65.6051L5.52623 48.4891L9.81661 35.3508L9.66059 46.7476L9.65269 47.3244L10.0982 47.6908L20.3405 56.1148V56.4V60.3653L19.9715 63.1649L18.8999 65.1551L18.8411 65.2643L18.8059 65.3833Z" stroke="#C35F58" stroke-width="2.4"/>
<path d="M90.6824 65.3833L90.7481 65.6051L103.962 48.4891L99.6717 35.3508L99.8277 46.7476L99.8356 47.3244L99.3901 47.6908L89.1478 56.1148V56.4V60.3653L89.5168 63.1649L90.5884 65.1551L90.6472 65.2643L90.6824 65.3833Z" stroke="#C35F58" stroke-width="2.4"/>
<path d="M20.7223 70.3285L19.6613 72.5378L1.3362 49.1869L14.3636 8.28762L13.5723 44.6979L13.5595 45.2843L14.0144 45.6546L24.348 54.0665V56.328V59.5377L23.8487 63.3463L23.4367 65.2437L22.1612 67.727L20.7543 70.2665L20.7374 70.297L20.7223 70.3285Z" stroke="#C35F58" stroke-width="2.4"/>
<path d="M88.8617 70.3285L89.9227 72.5378L108.248 49.1869L95.2204 8.28762L96.0117 44.6979L96.0244 45.2843L95.5696 45.6546L85.236 54.0665V56.328V59.5377L85.7353 63.3463L86.1473 65.2437L87.4228 67.727L88.8297 70.2665L88.8466 70.297L88.8617 70.3285Z" stroke="#C35F58" stroke-width="2.4"/>
<path d="M26.78 63.3284L27.025 61.9242L26.9376 62.5273L26.9348 62.5463L26.9327 62.5653L26.7124 64.5228L26.4665 65.5934L26.471 65.5605L26.78 63.3284ZM26.4317 65.7447L26.0787 67.2813L24.8944 70.1236L24.355 71.418L24.0498 71.3968L24.181 71.152L24.2006 71.1153L24.2177 71.0774L25.0693 69.1839L25.0732 69.1752L25.077 69.1664L25.8927 67.2729L25.9091 67.2346L25.9229 67.1953L26.4147 65.7931L26.4317 65.7447ZM48.5585 86.4791L44.8434 81.6137L48.9764 86.9469L45.4289 97.728H45.2768L48.7403 87.5955L48.9477 86.9888L48.5585 86.4791Z" stroke="#C35F58" stroke-width="2.4"/>
<path d="M82.6712 63.3404L82.4261 61.9362L82.5136 62.5393L82.5164 62.5583L82.5185 62.5774L82.7388 64.5348L82.9847 65.6054L82.9802 65.5725L82.6712 63.3404ZM83.0195 65.7567L83.3724 67.2933L84.5568 70.1356L85.0962 71.43L85.4014 71.4088L85.2702 71.164L85.2506 71.1274L85.2335 71.0894L84.3819 69.1959L84.3779 69.1872L84.3742 69.1784L83.5585 67.2849L83.542 67.2466L83.5282 67.2073L83.0365 65.8052L83.0195 65.7567ZM60.8926 86.4911L64.6078 81.6257L60.4748 86.9589L64.0223 97.74H64.1743L60.7109 87.6075L60.5035 87.0008L60.8926 86.4911Z" stroke="#C35F58" stroke-width="2.4"/>
<path d="M54.7676 83.808V57.732" stroke="#7A7976" stroke-width="2.4"/>
<path d="M41.4004 70.512V64.044L46.2484 70.512L51.1684 62.208V78.072" stroke="#7A7976" stroke-width="2.4"/>
<path d="M37.8244 60.888V69.408L30.0244 68.88C30.8884 65.688 31.3084 64.104 31.3084 60.888" stroke="#7A7976" stroke-width="2.4"/>
<path d="M58.4639 78V60.576L69.0719 71.1848" stroke="#7A7976" stroke-width="2.4"/>
<path d="M71.5078 70.824V63.756L76.1518 67.668" stroke="#7A7976" stroke-width="2.4"/>
<path d="M80.1484 70.128C79.4336 67.4494 79.0204 66.336 78.7204 62.952L74.6164 67.764" stroke="#7A7976" stroke-width="2.4"/>
<path d="M58.4521 69.636L65.9761 68.592" stroke="#7A7976" stroke-width="2.4"/>
<mask id="path-21-inside-1_584_199" fill="white">
<path d="M69.132 85.068L67.4854 87.468L67.6923 88.128L71.0163 82.488L69.132 85.068Z"/>
</mask>
<path d="M67.4854 87.468L65.5064 86.1102L64.8462 87.0725L65.1952 88.186L67.4854 87.468ZM69.132 85.068L67.1939 83.6526L67.173 83.6811L67.153 83.7102L69.132 85.068ZM71.0163 82.488L73.0839 83.7066L69.0781 81.0726L71.0163 82.488ZM67.6923 88.128L65.4022 88.846L67.0177 93.9994L69.7599 89.3466L67.6923 88.128ZM69.4643 88.8258L71.111 86.4258L67.153 83.7102L65.5064 86.1102L69.4643 88.8258ZM71.0702 86.4835L72.9544 83.9035L69.0781 81.0726L67.1939 83.6526L71.0702 86.4835ZM68.9486 81.2695L65.6246 86.9095L69.7599 89.3466L73.0839 83.7066L68.9486 81.2695ZM69.9824 87.4101L69.7755 86.7501L65.1952 88.186L65.4022 88.846L69.9824 87.4101Z" fill="#7A7976" mask="url(#path-21-inside-1_584_199)"/>
<mask id="path-23-inside-2_584_199" fill="white">
<path d="M40.4667 85.153L42.168 87.5428L41.9542 88.2L38.52 82.584L40.4667 85.153Z"/>
</mask>
<path d="M42.168 87.5428L44.1231 86.1509L44.8242 87.1357L44.4503 88.2852L42.168 87.5428ZM40.4667 85.153L42.3795 83.7035L42.4011 83.732L42.4219 83.7612L40.4667 85.153ZM38.52 82.584L36.4725 83.8361L40.4328 81.1345L38.52 82.584ZM41.9542 88.2L44.2365 88.9424L42.6249 93.8971L39.9067 89.4521L41.9542 88.2ZM40.2128 88.9347L38.5115 86.5449L42.4219 83.7612L44.1231 86.1509L40.2128 88.9347ZM38.5538 86.6025L36.6071 84.0335L40.4328 81.1345L42.3795 83.7035L38.5538 86.6025ZM40.5675 81.3319L44.0017 86.9479L39.9067 89.4521L36.4725 83.8361L40.5675 81.3319ZM39.6719 87.4576L39.8857 86.8005L44.4503 88.2852L44.2365 88.9424L39.6719 87.4576Z" fill="#7A7976" mask="url(#path-23-inside-2_584_199)"/>
</svg>
